<svg class="main-svg" xmlns="http://www.w3.org/2000/svg" xmlns:xlink="http://www.w3.org/1999/xlink" width="1277" height="854" style="" viewBox="0 0 1277 854"><rect x="0" y="0" width="1277" height="854" style="fill: rgb(255, 255, 255); fill-opacity: 1;"/><defs id="defs-e73b03"><g class="clips"><clipPath id="clipe73b03xyplot" class="plotclip"><rect width="1117" height="674"/></clipPath><clipPath class="axesclip" id="clipe73b03x"><rect x="80" y="0" width="1117" height="854"/></clipPath><clipPath class="axesclip" id="clipe73b03y"><rect x="0" y="100" width="1277" height="674"/></clipPath><clipPath class="axesclip" id="clipe73b03xy"><rect x="80" y="100" width="1117" height="674"/></clipPath></g><g class="gradients"/><g class="patterns"/></defs><g class="bglayer"/><g class="layer-below"><g class="imagelayer"/><g class="shapelayer"/></g><g class="cartesianlayer"><g class="subplot xy"><g class="layer-subplot"><g class="shapelayer"/><g class="imagelayer"/></g><g class="gridlayer"><g class="x"/><g class="y"/></g><g class="zerolinelayer"/><path class="xlines-below"/><path class="ylines-below"/><g class="overlines-below"/><g class="xaxislayer-below"/><g class="yaxislayer-below"/><g class="overaxes-below"/><g class="plot" transform="translate(80,100)" clip-path="url(#clipe73b03xyplot)"><g class="scatterlayer mlayer"><g class="trace scatter trace167456" style="stroke-miterlimit: 2; opacity: 1;"><g class="fills"/><g class="errorbars"/><g class="lines"><path class="js-line" d="M40.77,638.53L1082.43,638.53L1082.43,32.07L40.77,32.07L40.77,638.53" style="vector-effect: non-scaling-stroke; fill: none; stroke: rgb(0, 0, 0); stroke-opacity: 1; stroke-width: 10px; opacity: 1;"/></g><g class="points"/><g class="text"/></g></g></g><g class="overplot"/><path class="xlines-above crisp" d="M0,0" style="fill: none;"/><path class="ylines-above crisp" d="M0,0" style="fill: none;"/><g class="overlines-above"/><g class="xaxislayer-above"/><g class="yaxislayer-above"/><g class="overaxes-above"/></g></g><g class="polarlayer"/><g class="smithlayer"/><g class="ternarylayer"/><g class="geolayer"/><g class="funnelarealayer"/><g class="pielayer"/><g class="iciclelayer"/><g class="treemaplayer"/><g class="sunburstlayer"/><g class="glimages"/><defs id="topdefs-e73b03"><g class="clips"/></defs><g class="layer-above"><g class="imagelayer"/><g class="shapelayer"><path data-index="0" fill-rule="evenodd" d="M322.97,641.3249999999999A63.190000000000026,54.985000000000014 0 1,1 259.78000000000003,586.3399999999999A63.190000000000026,54.985000000000014 0 0,1 322.97,641.3249999999999Z" clip-path="url(#clipe73b03xy)" style="opacity: 1; stroke: rgb(0, 0, 0); stroke-opacity: 1; fill: rgb(255, 255, 255); fill-opacity: 1; stroke-width: 4px;"/><path data-index="1" fill-rule="evenodd" d="M480.33,641.3249999999999A63.19,54.985000000000014 0 1,1 417.14,586.3399999999999A63.19,54.985000000000014 0 0,1 480.33,641.3249999999999Z" clip-path="url(#clipe73b03xy)" style="opacity: 1; stroke: rgb(0, 0, 0); stroke-opacity: 1; fill: rgb(255, 255, 255); fill-opacity: 1; stroke-width: 4px;"/><path data-index="2" fill-rule="evenodd" d="M637.6800000000001,641.3249999999999A63.185,54.985000000000014 0 1,1 574.495,586.3399999999999A63.185,54.985000000000014 0 0,1 637.6800000000001,641.3249999999999Z" clip-path="url(#clipe73b03xy)" style="opacity: 1; stroke: rgb(0, 0, 0); stroke-opacity: 1; fill: rgb(255, 255, 255); fill-opacity: 1; stroke-width: 4px;"/><path data-index="3" fill-rule="evenodd" d="M795.0400000000001,641.3249999999999A63.18500000000006,54.985000000000014 0 1,1 731.855,586.3399999999999A63.18500000000006,54.985000000000014 0 0,1 795.0400000000001,641.3249999999999Z" clip-path="url(#clipe73b03xy)" style="opacity: 1; stroke: rgb(0, 0, 0); stroke-opacity: 1; fill: rgb(255, 255, 255); fill-opacity: 1; stroke-width: 4px;"/><path data-index="4" fill-rule="evenodd" d="M952.3999999999999,641.3249999999999A63.184999999999945,54.985000000000014 0 1,1 889.2149999999999,586.3399999999999A63.184999999999945,54.985000000000014 0 0,1 952.3999999999999,641.3249999999999Z" clip-path="url(#clipe73b03xy)" style="opacity: 1; stroke: rgb(0, 0, 0); stroke-opacity: 1; fill: rgb(255, 255, 255); fill-opacity: 1; stroke-width: 4px;"/><path data-index="5" fill-rule="evenodd" d="M1109.7599999999998,641.3249999999999A63.18999999999994,54.985000000000014 0 1,1 1046.57,586.3399999999999A63.18999999999994,54.985000000000014 0 0,1 1109.7599999999998,641.3249999999999Z" clip-path="url(#clipe73b03xy)" style="opacity: 1; stroke: rgb(0, 0, 0); stroke-opacity: 1; fill: rgb(255, 255, 255); fill-opacity: 1; stroke-width: 4px;"/><path data-index="6" fill-rule="evenodd" d="M322.97,504.4A63.190000000000026,54.98000000000002 0 1,1 259.78000000000003,449.41999999999996A63.190000000000026,54.98000000000002 0 0,1 322.97,504.4Z" clip-path="url(#clipe73b03xy)" style="opacity: 1; stroke: rgb(0, 0, 0); stroke-opacity: 1; fill: rgb(255, 255, 255); fill-opacity: 1; stroke-width: 4px;"/><path data-index="7" fill-rule="evenodd" d="M480.33,504.4A63.19,54.98000000000002 0 1,1 417.14,449.41999999999996A63.19,54.98000000000002 0 0,1 480.33,504.4Z" clip-path="url(#clipe73b03xy)" style="opacity: 1; stroke: rgb(0, 0, 0); stroke-opacity: 1; fill: rgb(255, 255, 255); fill-opacity: 1; stroke-width: 4px;"/><path data-index="8" fill-rule="evenodd" d="M637.6800000000001,504.4A63.185,54.98000000000002 0 1,1 574.495,449.41999999999996A63.185,54.98000000000002 0 0,1 637.6800000000001,504.4Z" clip-path="url(#clipe73b03xy)" style="opacity: 1; stroke: rgb(0, 0, 0); stroke-opacity: 1; fill: rgb(255, 255, 255); fill-opacity: 1; stroke-width: 4px;"/><path data-index="9" fill-rule="evenodd" d="M795.0400000000001,504.4A63.18500000000006,54.98000000000002 0 1,1 731.855,449.41999999999996A63.18500000000006,54.98000000000002 0 0,1 795.0400000000001,504.4Z" clip-path="url(#clipe73b03xy)" style="opacity: 1; stroke: rgb(0, 0, 0); stroke-opacity: 1; fill: rgb(255, 255, 255); fill-opacity: 1; stroke-width: 4px;"/><path data-index="10" fill-rule="evenodd" d="M952.3999999999999,504.4A63.184999999999945,54.98000000000002 0 1,1 889.2149999999999,449.41999999999996A63.184999999999945,54.98000000000002 0 0,1 952.3999999999999,504.4Z" clip-path="url(#clipe73b03xy)" style="opacity: 1; stroke: rgb(0, 0, 0); stroke-opacity: 1; fill: rgb(255, 255, 255); fill-opacity: 1; stroke-width: 4px;"/><path data-index="11" fill-rule="evenodd" d="M1109.7599999999998,504.4A63.18999999999994,54.98000000000002 0 1,1 1046.57,449.41999999999996A63.18999999999994,54.98000000000002 0 0,1 1109.7599999999998,504.4Z" clip-path="url(#clipe73b03xy)" style="opacity: 1; stroke: rgb(0, 0, 0); stroke-opacity: 1; fill: rgb(255, 255, 255); fill-opacity: 1; stroke-width: 4px;"/><path data-index="12" fill-rule="evenodd" d="M322.97,367.475A63.190000000000026,54.98499999999996 0 1,1 259.78000000000003,312.49000000000007A63.190000000000026,54.98499999999996 0 0,1 322.97,367.475Z" clip-path="url(#clipe73b03xy)" style="opacity: 1; stroke: rgb(0, 0, 0); stroke-opacity: 1; fill: rgb(255, 255, 255); fill-opacity: 1; stroke-width: 4px;"/><path data-index="13" fill-rule="evenodd" d="M480.33,367.475A63.19,54.98499999999996 0 1,1 417.14,312.49000000000007A63.19,54.98499999999996 0 0,1 480.33,367.475Z" clip-path="url(#clipe73b03xy)" style="opacity: 1; stroke: rgb(0, 0, 0); stroke-opacity: 1; fill: rgb(255, 255, 255); fill-opacity: 1; stroke-width: 4px;"/><path data-index="14" fill-rule="evenodd" d="M637.6800000000001,367.475A63.185,54.98499999999996 0 1,1 574.495,312.49000000000007A63.185,54.98499999999996 0 0,1 637.6800000000001,367.475Z" clip-path="url(#clipe73b03xy)" style="opacity: 1; stroke: rgb(0, 0, 0); stroke-opacity: 1; fill: rgb(255, 255, 255); fill-opacity: 1; stroke-width: 4px;"/><path data-index="15" fill-rule="evenodd" d="M795.0400000000001,367.475A63.18500000000006,54.98499999999996 0 1,1 731.855,312.49000000000007A63.18500000000006,54.98499999999996 0 0,1 795.0400000000001,367.475Z" clip-path="url(#clipe73b03xy)" style="opacity: 1; stroke: rgb(0, 0, 0); stroke-opacity: 1; fill: rgb(255, 255, 255); fill-opacity: 1; stroke-width: 4px;"/><path data-index="16" fill-rule="evenodd" d="M952.3999999999999,367.475A63.184999999999945,54.98499999999996 0 1,1 889.2149999999999,312.49000000000007A63.184999999999945,54.98499999999996 0 0,1 952.3999999999999,367.475Z" clip-path="url(#clipe73b03xy)" style="opacity: 1; stroke: rgb(0, 0, 0); stroke-opacity: 1; fill: rgb(255, 255, 255); fill-opacity: 1; stroke-width: 4px;"/><path data-index="17" fill-rule="evenodd" d="M1109.7599999999998,367.475A63.18999999999994,54.98499999999996 0 1,1 1046.57,312.49000000000007A63.18999999999994,54.98499999999996 0 0,1 1109.7599999999998,367.475Z" clip-path="url(#clipe73b03xy)" style="opacity: 1; stroke: rgb(0, 0, 0); stroke-opacity: 1; fill: rgb(255, 255, 255); fill-opacity: 1; stroke-width: 4px;"/><path data-index="18" fill-rule="evenodd" d="M322.97,230.545A63.190000000000026,54.984999999999985 0 1,1 259.78000000000003,175.56A63.190000000000026,54.984999999999985 0 0,1 322.97,230.545Z" clip-path="url(#clipe73b03xy)" style="opacity: 1; stroke: rgb(0, 0, 0); stroke-opacity: 1; fill: rgb(255, 255, 255); fill-opacity: 1; stroke-width: 4px;"/><path data-index="19" fill-rule="evenodd" d="M480.33,230.545A63.19,54.984999999999985 0 1,1 417.14,175.56A63.19,54.984999999999985 0 0,1 480.33,230.545Z" clip-path="url(#clipe73b03xy)" style="opacity: 1; stroke: rgb(0, 0, 0); stroke-opacity: 1; fill: rgb(255, 255, 255); fill-opacity: 1; stroke-width: 4px;"/><path data-index="20" fill-rule="evenodd" d="M637.6800000000001,230.545A63.185,54.984999999999985 0 1,1 574.495,175.56A63.185,54.984999999999985 0 0,1 637.6800000000001,230.545Z" clip-path="url(#clipe73b03xy)" style="opacity: 1; stroke: rgb(0, 0, 0); stroke-opacity: 1; fill: rgb(255, 255, 255); fill-opacity: 1; stroke-width: 4px;"/><path data-index="21" fill-rule="evenodd" d="M795.0400000000001,230.545A63.18500000000006,54.984999999999985 0 1,1 731.855,175.56A63.18500000000006,54.984999999999985 0 0,1 795.0400000000001,230.545Z" clip-path="url(#clipe73b03xy)" style="opacity: 1; stroke: rgb(0, 0, 0); stroke-opacity: 1; fill: rgb(255, 255, 255); fill-opacity: 1; stroke-width: 4px;"/><path data-index="22" fill-rule="evenodd" d="M952.3999999999999,230.545A63.184999999999945,54.984999999999985 0 1,1 889.2149999999999,175.56A63.184999999999945,54.984999999999985 0 0,1 952.3999999999999,230.545Z" clip-path="url(#clipe73b03xy)" style="opacity: 1; stroke: rgb(0, 0, 0); stroke-opacity: 1; fill: rgb(255, 255, 255); fill-opacity: 1; stroke-width: 4px;"/><path data-index="23" fill-rule="evenodd" d="M1109.7599999999998,230.545A63.18999999999994,54.984999999999985 0 1,1 1046.57,175.56A63.18999999999994,54.984999999999985 0 0,1 1109.7599999999998,230.545Z" clip-path="url(#clipe73b03xy)" style="opacity: 1; stroke: rgb(0, 0, 0); stroke-opacity: 1; fill: rgb(255, 255, 255); fill-opacity: 1; stroke-width: 4px;"/></g></g><g class="infolayer"><g class="g-gtitle"/><g class="annotation" data-index="0" style="opacity: 1;"><g class="annotation-text-g" transform="rotate(0,259.78,158.53)"><g class="cursor-pointer" transform="translate(247,135)"><rect class="bg" x="0.5" y="0.5" width="25" height="47" style="stroke-width: 1px; stroke: rgb(0, 0, 0); stroke-opacity: 0; fill: rgb(0, 0, 0); fill-opacity: 0;"/><text class="annotation-text" text-anchor="middle" x="13.125" y="38" style="font-family: Arial; font-size: 40px; fill: rgb(0, 0, 0); fill-opacity: 1; white-space: pre;"><tspan style="font-weight:bold">1</tspan></text></g></g></g><g class="annotation" data-index="1" style="opacity: 1;"><g class="annotation-text-g" transform="rotate(0,417.14,158.53)"><g class="cursor-pointer" transform="translate(404,135)"><rect class="bg" x="0.5" y="0.5" width="25" height="47" style="stroke-width: 1px; stroke: rgb(0, 0, 0); stroke-opacity: 0; fill: rgb(0, 0, 0); fill-opacity: 0;"/><text class="annotation-text" text-anchor="middle" x="13.125" y="38" style="font-family: Arial; font-size: 40px; fill: rgb(0, 0, 0); fill-opacity: 1; white-space: pre;"><tspan style="font-weight:bold">2</tspan></text></g></g></g><g class="annotation" data-index="2" style="opacity: 1;"><g class="annotation-text-g" transform="rotate(0,574.5,158.53)"><g class="cursor-pointer" transform="translate(562,135)"><rect class="bg" x="0.5" y="0.5" width="25" height="47" style="stroke-width: 1px; stroke: rgb(0, 0, 0); stroke-opacity: 0; fill: rgb(0, 0, 0); fill-opacity: 0;"/><text class="annotation-text" text-anchor="middle" x="13.125" y="38" style="font-family: Arial; font-size: 40px; fill: rgb(0, 0, 0); fill-opacity: 1; white-space: pre;"><tspan style="font-weight:bold">3</tspan></text></g></g></g><g class="annotation" data-index="3" style="opacity: 1;"><g class="annotation-text-g" transform="rotate(0,731.86,158.53)"><g class="cursor-pointer" transform="translate(719,135)"><rect class="bg" x="0.5" y="0.5" width="25" height="47" style="stroke-width: 1px; stroke: rgb(0, 0, 0); stroke-opacity: 0; fill: rgb(0, 0, 0); fill-opacity: 0;"/><text class="annotation-text" text-anchor="middle" x="13.125" y="38" style="font-family: Arial; font-size: 40px; fill: rgb(0, 0, 0); fill-opacity: 1; white-space: pre;"><tspan style="font-weight:bold">4</tspan></text></g></g></g><g class="annotation" data-index="4" style="opacity: 1;"><g class="annotation-text-g" transform="rotate(0,889.21,158.53)"><g class="cursor-pointer" transform="translate(876,135)"><rect class="bg" x="0.5" y="0.5" width="25" height="47" style="stroke-width: 1px; stroke: rgb(0, 0, 0); stroke-opacity: 0; fill: rgb(0, 0, 0); fill-opacity: 0;"/><text class="annotation-text" text-anchor="middle" x="13.125" y="38" style="font-family: Arial; font-size: 40px; fill: rgb(0, 0, 0); fill-opacity: 1; white-space: pre;"><tspan style="font-weight:bold">5</tspan></text></g></g></g><g class="annotation" data-index="5" style="opacity: 1;"><g class="annotation-text-g" transform="rotate(0,1046.5700000000002,158.53)"><g class="cursor-pointer" transform="translate(1034,135)"><rect class="bg" x="0.5" y="0.5" width="25" height="47" style="stroke-width: 1px; stroke: rgb(0, 0, 0); stroke-opacity: 0; fill: rgb(0, 0, 0); fill-opacity: 0;"/><text class="annotation-text" text-anchor="middle" x="13.125" y="38" style="font-family: Arial; font-size: 40px; fill: rgb(0, 0, 0); fill-opacity: 1; white-space: pre;"><tspan style="font-weight:bold">6</tspan></text></g></g></g><g class="annotation" data-index="6" style="opacity: 1;"><g class="annotation-text-g" transform="rotate(0,172.95,641.33)"><g class="cursor-pointer" transform="translate(156,617)"><rect class="bg" x="0.5" y="0.5" width="32" height="47" style="stroke-width: 1px; stroke: rgb(0, 0, 0); stroke-opacity: 0; fill: rgb(0, 0, 0); fill-opacity: 0;"/><text class="annotation-text" text-anchor="middle" x="16.453125" y="38" style="font-family: Arial; font-size: 40px; fill: rgb(0, 0, 0); fill-opacity: 1; white-space: pre;"><tspan style="font-weight:bold">D</tspan></text></g></g></g><g class="annotation" data-index="7" style="opacity: 1;"><g class="annotation-text-g" transform="rotate(0,172.95,504.4)"><g class="cursor-pointer" transform="translate(156,480)"><rect class="bg" x="0.5" y="0.5" width="32" height="47" style="stroke-width: 1px; stroke: rgb(0, 0, 0); stroke-opacity: 0; fill: rgb(0, 0, 0); fill-opacity: 0;"/><text class="annotation-text" text-anchor="middle" x="16.453125" y="38" style="font-family: Arial; font-size: 40px; fill: rgb(0, 0, 0); fill-opacity: 1; white-space: pre;"><tspan style="font-weight:bold">C</tspan></text></g></g></g><g class="annotation" data-index="8" style="opacity: 1;"><g class="annotation-text-g" transform="rotate(0,172.95,367.47)"><g class="cursor-pointer" transform="translate(156,343)"><rect class="bg" x="0.5" y="0.5" width="32" height="47" style="stroke-width: 1px; stroke: rgb(0, 0, 0); stroke-opacity: 0; fill: rgb(0, 0, 0); fill-opacity: 0;"/><text class="annotation-text" text-anchor="middle" x="16.453125" y="38" style="font-family: Arial; font-size: 40px; fill: rgb(0, 0, 0); fill-opacity: 1; white-space: pre;"><tspan style="font-weight:bold">B</tspan></text></g></g></g><g class="annotation" data-index="9" style="opacity: 1;"><g class="annotation-text-g" transform="rotate(0,172.95,230.54)"><g class="cursor-pointer" transform="translate(156,207)"><rect class="bg" x="0.5" y="0.5" width="33" height="47" style="stroke-width: 1px; stroke: rgb(0, 0, 0); stroke-opacity: 0; fill: rgb(0, 0, 0); fill-opacity: 0;"/><text class="annotation-text" text-anchor="middle" x="17.453125" y="38" style="font-family: Arial; font-size: 40px; fill: rgb(0, 0, 0); fill-opacity: 1; white-space: pre;"><tspan style="font-weight:bold">A</tspan></text></g></g></g></g></svg>